<svg xmlns="http://www.w3.org/2000/svg" xmlns:xlink="http://www.w3.org/1999/xlink" xmlns:serif="http://www.serif.com/" viewBox="0 0 101 126.25" version="1.1" xml:space="preserve" style="" x="0px" y="0px" fill-rule="evenodd" clip-rule="evenodd" stroke-linejoin="round" stroke-miterlimit="1.41421"><rect serif:id="Page 19" x="0.5" y="0.5" width="100" height="100" style="" fill="none"/><g><path d="M48.16,37.462l-4.271,0c-0.168,0 -0.323,-0.089 -0.407,-0.235c-0.084,-0.145 -0.084,-0.324 0,-0.47c1.183,-2.045 4.63,-8.01 6.21,-10.744c0.167,-0.289 0.475,-0.467 0.808,-0.467c0.333,0 0.641,0.178 0.808,0.467c1.58,2.734 5.027,8.699 6.21,10.744c0.084,0.146 0.084,0.325 0,0.47c-0.084,0.146 -0.239,0.235 -0.407,0.235l-4.271,0l0,1.61l0.015,0c0.001,0.425 -0.004,0.85 -0.015,1.274c0,0 0,26.625 0,29.944c0,0.09 -0.036,0.176 -0.099,0.239c-0.063,0.064 -0.149,0.099 -0.239,0.099c-0.863,0 -3.141,0 -4.004,0c-0.09,0 -0.176,-0.035 -0.239,-0.099c-0.063,-0.063 -0.099,-0.149 -0.099,-0.239c0,-1.946 0,-11.628 0,-11.628c-2.156,4.04 -5.131,7.71 -8.828,10.328c-0.149,0.104 -0.353,0.073 -0.463,-0.072c-0.514,-0.673 -1.895,-2.481 -2.43,-3.182c-0.057,-0.074 -0.08,-0.167 -0.065,-0.259c0.014,-0.091 0.066,-0.173 0.142,-0.225c3.297,-2.29 5.901,-5.622 7.773,-9.289c2.647,-5.185 3.872,-11.045 3.871,-16.891l0,0l0,-1.61Z" style="" fill-rule="nonzero"/><path d="M50.957,6.514c0.387,0.118 0.501,0.121 0.843,0.35c0.127,0.085 0.237,0.194 0.355,0.291l41.69,41.69c0.257,0.313 0.35,0.38 0.508,0.759c0.235,0.568 0.235,1.224 0,1.792c-0.158,0.379 -0.251,0.446 -0.508,0.759l-41.69,41.69c-0.313,0.257 -0.38,0.35 -0.759,0.508c-0.568,0.235 -1.224,0.235 -1.792,0c-0.379,-0.158 -0.446,-0.251 -0.759,-0.508l-41.69,-41.69c-0.257,-0.313 -0.35,-0.38 -0.508,-0.759c-0.235,-0.568 -0.235,-1.224 0,-1.792c0.158,-0.379 0.251,-0.446 0.508,-0.759l41.69,-41.69c0.118,-0.097 0.228,-0.206 0.355,-0.291c0.255,-0.171 0.542,-0.29 0.843,-0.35c0.3,-0.059 0.609,-0.03 0.914,0Zm-38.838,43.986l38.381,38.381l38.381,-38.381l-38.381,-38.381c-12.794,12.794 -25.587,25.587 -38.381,38.381Z" style="" fill-rule="nonzero"/></g><text x="0" y="116" fill="#000000" font-size="5px" font-weight="bold" font-family="'Helvetica Neue', Helvetica, Arial-Unicode, Arial, Sans-serif">Created by Zach Bogart</text><text x="0" y="121" fill="#000000" font-size="5px" font-weight="bold" font-family="'Helvetica Neue', Helvetica, Arial-Unicode, Arial, Sans-serif">from the Noun Project</text></svg>