<?xml version="1.0" encoding="utf-8"?>
<!-- Generator: Adobe Illustrator 23.0.3, SVG Export Plug-In . SVG Version: 6.00 Build 0)  -->
<svg version="1.1" xmlns="http://www.w3.org/2000/svg" xmlns:xlink="http://www.w3.org/1999/xlink" x="0px" y="0px"
	 viewBox="0 0 126 126" style="enable-background:new 0 0 126 126;" xml:space="preserve">
<style type="text/css">
	.st0{display:none;}
	.st1{display:inline;fill:none;stroke:#FFFFFF;stroke-miterlimit:10;}
</style>
<g id="Layer_1">
	<path d="M126,0H0v126h126V0z M118,118H8V8h110V118z"/>
	<path d="M63,92c16,0,29-13,29-29S79,34,63,34S34,47,34,63S47,92,63,92z M63,42c11.6,0,21,9.4,21,21s-9.4,21-21,21s-21-9.4-21-21
		S51.4,42,63,42z"/>
	<path d="M102,18L102,18c3.3,0,6,2.7,6,6l0,0c0,3.3-2.7,6-6,6l0,0c-3.3,0-6-2.7-6-6l0,0C96,20.7,98.7,18,102,18z"/>
</g>
<g id="Layer_2" class="st0">
	
		<image style="display:inline;overflow:visible;opacity:0.32;" width="1024" height="1024" xlink:href="A57C285.jpg"  transform="matrix(0.1308 0 0 0.1308 -2.8571 -4.9752)">
	</image>
</g>
<g id="Layer_3" class="st0">
	<path class="st1" d="M44.4,126c0,0,2.9-0.3,3.1-2.9v-13.2c0,0-5.2,1.2-10.3,0.7s-8.1-1.6-11.4-6.6c0,0-3.6-9.4-8.2-11.6
		s-2.6-3.9-1.9-4c0,0,7.4-2.6,14,8.7c4,3.6,7.8,7.7,18.1,3.5c0,0.1,0.2-5.4,4.2-9c0,0-31.5,0.5-30.4-33.1c0.1-3.2,0.2-10.9,6.8-17.9
		c0,0-3.4-8.8,0.7-17.9c0,0,6.2-1.6,18.4,7c0,0,15-5.3,33.5,0c0,0,10.2-8.5,18.4-6.8c0,0.2,4,8.4,0.6,17.6c0,0,10.7,9.1,5.6,29.7
		c0,0-3.3,20-29.1,21.4c0,0,4.2,3.7,4.3,11.4c0.1,7.7,0,19.9,0,19.9s0.7,3.3,3.5,3.2s41.6,0,41.6,0V0H0v126H44.4z"/>
</g>
</svg>
