<?xml version="1.0" encoding="utf-8"?>
<!-- Generator: Adobe Illustrator 22.0.1, SVG Export Plug-In . SVG Version: 6.00 Build 0)  -->
<svg version="1.1" id="Layer_1" xmlns="http://www.w3.org/2000/svg" xmlns:xlink="http://www.w3.org/1999/xlink" x="0px" y="0px"
	 viewBox="0 0 126 126" style="enable-background:new 0 0 126 126;" xml:space="preserve">
<path d="M126,0H0v126h126V0z M118,118H8V8h110V118z"/>
<path d="M63,92c16,0,29-13,29-29S79,34,63,34S34,47,34,63S47,92,63,92z M63,42c11.6,0,21,9.4,21,21s-9.4,21-21,21s-21-9.4-21-21
	S51.4,42,63,42z"/>
<path d="M102,18L102,18c3.3,0,6,2.7,6,6v0c0,3.3-2.7,6-6,6h0c-3.3,0-6-2.7-6-6v0C96,20.7,98.7,18,102,18z"/>
</svg>
