<svg xmlns="http://www.w3.org/2000/svg" viewBox="0 0 298.58 746.49"><defs><style>.cls-1{fill:#121212;}</style></defs><title>Asset 1</title><g id="Layer_2" data-name="Layer 2"><g id="Layer_4" data-name="Layer 4"><path class="cls-1" d="M248.82,149.31H85L248.82,313.17Zm-199,35.18V348.36H213.64Z"/><path class="cls-1" d="M248.82,434.38,185,498.18l-33.13,33.15-2,2L49.77,433.31V597.18h199ZM214.7,398.12H85L149.83,463Z"/><path class="cls-1" d="M0,646.94v99.55H298.58V646.94Zm66,74.28H58V687L48,702.26,37.87,686.85v34.37h-8V672.08h8.05L48,687.36l10-15.28h8Zm47.5-41.06h-17V691h17v8.6h-17v13h17v8.54h-17v.06h-8V672h25Zm54.07,41.13h-8V699.13h-17v22.16h-8V672.14h8v18.4h17v-18.4h8Zm46.31-41.13h-17V691h17v8.6h-17v13h17v8.54h-17v.06h-8V672h25Zm45.38,41-11.42-19.09h-2.59v19.09h-8V672h19.52a13.24,13.24,0,0,1,5.44,3.58,15.21,15.21,0,0,1,2.93,4.78,15.49,15.49,0,0,1,1,5.66,17.57,17.57,0,0,1-3.78,10.82,14.54,14.54,0,0,1-4.26,3.68,5,5,0,0,1-.65.35l-.65.29,11.88,20ZM258.18,686a6.47,6.47,0,0,0-.44-2.39,6.78,6.78,0,0,0-1.22-2,5.69,5.69,0,0,0-1.8-1.33,5.13,5.13,0,0,0-2.21-.49h-7.28v13.62h7.28a3.59,3.59,0,0,0,2.35-.79,8,8,0,0,0,2.85-3.9A8.49,8.49,0,0,0,258.18,686Z"/><path class="cls-1" d="M0,0V99.54H298.58V0ZM61,74.66H53v-.2L32.87,41.17V74.66h-8V25.51h8.05L53,58.69V25.51h8Zm28.39-.27h-8V25.26h8Zm45.84.07L121.78,56l-.34.51v18h-8V25.32h8V41.55l.34.46,12.14-16.69h10.17L126.81,49l18.57,25.46Zm62.6.14h-8V52.44h-17V74.6h-8V25.45h8v18.4h17V25.45h8Zm27.57-.21h-8V25.26h8Zm47.8.13h-17v.08h-8V25.45h8V66h17Z"/></g></g></svg>